<?xml version="1.0" encoding="iso-8859-1"?>
<!-- Uploaded to: SVG Repo, www.svgrepo.com, Generator: SVG Repo Mixer Tools -->
<svg fill="#000000" height="800px" width="800px" version="1.1" id="Layer_1" xmlns="http://www.w3.org/2000/svg" xmlns:xlink="http://www.w3.org/1999/xlink" 
	 viewBox="0 0 512 512" xml:space="preserve">
<g>
	<g>
		<path d="M444.861,38.849h-33.998L400.505,7.774C398.958,3.131,394.612,0,389.719,0h-96.674c-4.893,0-9.238,3.131-10.786,7.774
			L271.9,38.849h-31.795L229.746,7.774C228.199,3.131,223.855,0,218.96,0h-96.674c-4.893,0-9.238,3.131-10.786,7.774l-10.358,31.075
			H67.145c-6.279,0-11.369,5.09-11.369,11.369v118.304c0,0.041-0.006,0.081-0.006,0.122c0,0.041,0.006,0.08,0.006,0.121v302.476
			c0,6.279,5.09,11.369,11.369,11.369h34.222v18.021c0,6.279,5.09,11.369,11.369,11.369c6.279,0,11.369-5.09,11.369-11.369V482.61
			h263.782v18.021c0,6.279,5.09,11.369,11.369,11.369s11.369-5.09,11.369-11.369V482.61h34.233c6.279,0,11.369-5.09,11.369-11.369
			V50.219C456.23,43.939,451.14,38.849,444.861,38.849z M301.238,22.739h80.285l5.37,16.11h-91.026L301.238,22.739z M130.481,22.739
			h80.285l5.37,16.11h-91.025L130.481,22.739z M78.515,61.588h30.821H231.91h48.184h122.574h30.823v95.685H78.515V61.588z
			 M433.491,459.871H78.515V180.012h354.977V459.871z"/>
	</g>
</g>
<g>
	<g>
		<path d="M352.353,247.092h-3.127c-6.279,0-11.369,5.09-11.369,11.369s5.09,11.369,11.369,11.369h3.127
			c6.279,0,11.369-5.09,11.369-11.369S358.633,247.092,352.353,247.092z"/>
	</g>
</g>
<g>
	<g>
		<path d="M399.257,247.092H383.76c-6.279,0-11.369,5.09-11.369,11.369s5.09,11.369,11.369,11.369h4.127V415.36H124.105V269.831
			h192.86c6.279,0,11.369-5.09,11.369-11.369c0-6.279-5.09-11.369-11.369-11.369H112.737c-6.279,0-11.369,5.09-11.369,11.369
			v168.268c0,6.279,5.09,11.369,11.369,11.369h286.521c6.279,0,11.369-5.09,11.369-11.369V258.461
			C410.626,252.182,405.536,247.092,399.257,247.092z"/>
	</g>
</g>
<g>
	<g>
		<path d="M399.257,203.32h-286.52c-6.279,0-11.369,5.09-11.369,11.369s5.09,11.369,11.369,11.369h286.521
			c6.279,0,11.369-5.09,11.369-11.369S405.536,203.32,399.257,203.32z"/>
	</g>
</g>
<g>
	<g>
		<path d="M155.348,99.005c-6.279,0-11.369,5.09-11.369,11.369c0,5.479-4.458,9.937-9.937,9.937s-9.937-4.457-9.937-9.937
			c0-5.48,4.457-9.937,9.937-9.937c6.279,0,11.369-5.09,11.369-11.369c0-6.279-5.09-11.369-11.369-11.369
			c-18.017,0-32.676,14.659-32.676,32.676s14.659,32.676,32.676,32.676c18.018,0,32.676-14.659,32.676-32.676
			C166.718,104.095,161.627,99.005,155.348,99.005z"/>
	</g>
</g>
<g>
	<g>
		<path d="M236.652,99.005c-6.279,0-11.369,5.09-11.369,11.369c0,5.479-4.457,9.937-9.937,9.937c-5.48,0-9.937-4.457-9.937-9.937
			c0-5.48,4.458-9.937,9.937-9.937c6.279,0,11.369-5.09,11.369-11.369c0-6.279-5.09-11.369-11.369-11.369
			c-18.017,0-32.676,14.659-32.676,32.676s14.659,32.676,32.676,32.676s32.676-14.659,32.676-32.676
			C248.022,104.095,242.931,99.005,236.652,99.005z"/>
	</g>
</g>
<g>
	<g>
		<path d="M317.954,99.005c-6.279,0-11.369,5.09-11.369,11.369c0,5.479-4.458,9.937-9.937,9.937s-9.937-4.457-9.937-9.937
			c0-5.48,4.457-9.937,9.937-9.937c6.279,0,11.369-5.09,11.369-11.369c0-6.279-5.09-11.369-11.369-11.369
			c-18.017,0-32.676,14.659-32.676,32.676s14.659,32.676,32.676,32.676s32.676-14.659,32.676-32.676
			C329.323,104.095,324.233,99.005,317.954,99.005z"/>
	</g>
</g>
<g>
	<g>
		<path d="M399.258,99.005c-6.279,0-11.369,5.09-11.369,11.369c0,5.479-4.457,9.937-9.937,9.937s-9.937-4.457-9.937-9.937
			c0-5.48,4.458-9.937,9.937-9.937c6.279,0,11.369-5.09,11.369-11.369c0-6.279-5.09-11.369-11.369-11.369
			c-18.018,0-32.676,14.659-32.676,32.676s14.657,32.676,32.676,32.676c18.017,0,32.676-14.659,32.676-32.676
			C410.627,104.095,405.537,99.005,399.258,99.005z"/>
	</g>
</g>
</svg>